<svg xmlns="http://www.w3.org/2000/svg" version="1.1" xmlns:xlink="http://www.w3.org/1999/xlink" xmlns:svgjs="http://svgjs.dev/svgjs" width="1920" height="1080" preserveAspectRatio="none" viewBox="0 0 1920 1080"><g mask="url(&quot;#SvgjsMask1059&quot;)" fill="none"><rect width="1920" height="1080" x="0" y="0" fill="rgba(11, 11, 13, 1)"></rect><path d="M1952 1080L0 1080 L0 252.95Q109.14 202.09, 160 311.22Q250.27 241.5, 320 331.77Q390.95 306.72, 416 377.67Q426.32 292, 512 302.32Q524.68 219, 608 231.68Q705.12 168.8, 768 265.92Q903.27 241.19, 928 376.46Q1009.51 361.98, 1024 443.49Q1043.86 303.35, 1184 323.2Q1280.38 259.57, 1344 355.95Q1435.78 287.73, 1504 379.5Q1567.37 346.87, 1600 410.24Q1615.63 329.88, 1696 345.51Q1761.89 251.4, 1856 317.29Q1910.63 275.93, 1952 330.56z" fill="rgba(31, 31, 32, 1)"></path><path d="M1952 1080L0 1080 L0 584.64Q19.11 443.75, 160 462.86Q184.45 391.31, 256 415.76Q291.46 355.22, 352 390.68Q465.05 343.73, 512 456.77Q671.7 456.47, 672 616.17Q689.08 473.25, 832 490.33Q845.67 408, 928 421.68Q995.42 329.11, 1088 396.53Q1188.21 336.75, 1248 436.96Q1374.91 403.87, 1408 530.78Q1481.68 508.46, 1504 582.14Q1511.44 493.58, 1600 501.02Q1656.03 461.05, 1696 517.07Q1755.26 416.34, 1856 475.6Q1897.06 420.66, 1952 461.72z" fill="rgba(50, 50, 51, 1)"></path><path d="M2080 1080L0 1080 L0 570.21Q64.76 538.97, 96 603.73Q258.86 606.59, 256 769.44Q238.44 591.88, 416 574.33Q490.5 488.83, 576 563.33Q640.4 531.73, 672 596.13Q779.85 543.98, 832 651.83Q905.36 565.19, 992 638.56Q1126.09 612.65, 1152 746.74Q1164.05 598.79, 1312 610.84Q1337.92 540.76, 1408 566.68Q1470.04 532.72, 1504 594.76Q1672.11 602.87, 1664 770.97Q1727.4 738.37, 1760 801.77Q1795.39 677.16, 1920 712.55Q1951.16 583.71, 2080 614.88z" fill="rgba(70, 70, 71, 1)"></path><path d="M2016 1080L0 1080 L0 888.56Q102.23 830.78, 160 933.01Q160.68 773.69, 320 774.38Q352.08 710.46, 416 742.55Q521.19 687.74, 576 792.93Q665.2 786.13, 672 875.32Q686.15 793.48, 768 807.63Q799.82 743.45, 864 775.27Q937 752.27, 960 825.27Q990.49 759.76, 1056 790.25Q1121.04 695.29, 1216 760.33Q1299.99 748.33, 1312 832.32Q1351.19 775.51, 1408 814.7Q1541.12 787.82, 1568 920.94Q1593.43 850.37, 1664 875.8Q1688.02 803.82, 1760 827.83Q1833.72 741.55, 1920 815.27Q1989.69 788.96, 2016 858.65z" fill="rgba(90, 90, 91, 1)"></path><path d="M2048 1080L0 1080 L0 1085.46Q7.39 932.85, 160 940.24Q227.5 847.74, 320 915.23Q446.52 881.75, 480 1008.28Q516.64 948.92, 576 985.57Q684.76 934.34, 736 1043.1Q844.64 991.74, 896 1100.38Q927.46 971.84, 1056 1003.3Q1093.18 880.48, 1216 917.66Q1311.8 853.46, 1376 949.26Q1491.88 905.14, 1536 1021.02Q1628.08 1017.1, 1632 1109.18Q1645.73 962.91, 1792 976.65Q1829.43 918.08, 1888 955.5Q1945.66 853.16, 2048 910.83z" fill="rgba(112, 112, 113, 1)"></path></g><defs><mask id="SvgjsMask1059"><rect width="1920" height="1080" fill="#ffffff"></rect></mask></defs></svg>